<mxfile host="app.diagrams.net" modified="2023-05-08T06:51:11.822Z" agent="Mozilla/5.0 (Windows NT 10.0; Win64; x64) AppleWebKit/537.36 (KHTML, like Gecko) Chrome/113.0.0.0 Safari/537.36" etag="qB_QB2DJFl_407Co6d7i" version="21.2.9" type="github">
  <diagram name="第 1 页" id="Rb51l71q7Gfc8bK61DrM">
    <mxGraphModel dx="1221" dy="743" grid="1" gridSize="10" guides="1" tooltips="1" connect="1" arrows="1" fold="1" page="1" pageScale="1" pageWidth="827" pageHeight="1169" math="0" shadow="0">
      <root>
        <mxCell id="0" />
        <mxCell id="1" parent="0" />
        <mxCell id="VFR9KmglleWV5bc5xLFj-25" value="" style="rounded=1;whiteSpace=wrap;html=1;" parent="1" vertex="1">
          <mxGeometry x="250" y="270" width="300" height="240" as="geometry" />
        </mxCell>
        <mxCell id="VFR9KmglleWV5bc5xLFj-7" value="" style="rounded=1;whiteSpace=wrap;html=1;" parent="1" vertex="1">
          <mxGeometry x="250" y="525" width="300" height="120" as="geometry" />
        </mxCell>
        <mxCell id="VFR9KmglleWV5bc5xLFj-47" style="edgeStyle=orthogonalEdgeStyle;rounded=0;orthogonalLoop=1;jettySize=auto;html=1;exitX=0.75;exitY=1;exitDx=0;exitDy=0;entryX=0.5;entryY=0;entryDx=0;entryDy=0;" parent="1" source="VFR9KmglleWV5bc5xLFj-1" target="VFR9KmglleWV5bc5xLFj-2" edge="1">
          <mxGeometry relative="1" as="geometry" />
        </mxCell>
        <mxCell id="VFR9KmglleWV5bc5xLFj-1" value="&lt;h1 style=&quot;box-sizing: border-box; break-after: avoid-page; break-inside: avoid; orphans: 4; font-size: 2.25em; margin-top: 1rem; margin-bottom: 1rem; position: relative; line-height: 1.2; cursor: text; border-bottom: 1px solid rgb(238, 238, 238); color: rgb(51, 51, 51); font-family: &amp;quot;Open Sans&amp;quot;, &amp;quot;Clear Sans&amp;quot;, &amp;quot;Helvetica Neue&amp;quot;, Helvetica, Arial, sans-serif; text-align: start;&quot; class=&quot;md-end-block md-heading md-focus&quot;&gt;科学原理知识库系统&lt;/h1&gt;" style="rounded=1;whiteSpace=wrap;html=1;" parent="1" vertex="1">
          <mxGeometry x="250" y="190" width="300" height="60" as="geometry" />
        </mxCell>
        <mxCell id="VFR9KmglleWV5bc5xLFj-49" style="edgeStyle=orthogonalEdgeStyle;rounded=0;orthogonalLoop=1;jettySize=auto;html=1;exitX=0.5;exitY=1;exitDx=0;exitDy=0;" parent="1" source="VFR9KmglleWV5bc5xLFj-2" target="VFR9KmglleWV5bc5xLFj-3" edge="1">
          <mxGeometry relative="1" as="geometry" />
        </mxCell>
        <mxCell id="VFR9KmglleWV5bc5xLFj-2" value="分类选择页" style="rounded=1;whiteSpace=wrap;html=1;" parent="1" vertex="1">
          <mxGeometry x="390" y="280" width="120" height="60" as="geometry" />
        </mxCell>
        <mxCell id="VFR9KmglleWV5bc5xLFj-50" style="edgeStyle=orthogonalEdgeStyle;rounded=0;orthogonalLoop=1;jettySize=auto;html=1;exitX=0.5;exitY=1;exitDx=0;exitDy=0;entryX=0.5;entryY=0;entryDx=0;entryDy=0;" parent="1" source="VFR9KmglleWV5bc5xLFj-3" target="VFR9KmglleWV5bc5xLFj-6" edge="1">
          <mxGeometry relative="1" as="geometry" />
        </mxCell>
        <mxCell id="VFR9KmglleWV5bc5xLFj-3" value="检索条件选择页" style="rounded=1;whiteSpace=wrap;html=1;" parent="1" vertex="1">
          <mxGeometry x="390" y="360" width="120" height="60" as="geometry" />
        </mxCell>
        <mxCell id="VFR9KmglleWV5bc5xLFj-4" value="视频模块" style="rounded=1;whiteSpace=wrap;html=1;" parent="1" vertex="1">
          <mxGeometry x="270" y="555" width="120" height="60" as="geometry" />
        </mxCell>
        <mxCell id="VFR9KmglleWV5bc5xLFj-5" value="AI对话模块" style="rounded=1;whiteSpace=wrap;html=1;" parent="1" vertex="1">
          <mxGeometry x="410" y="555" width="120" height="60" as="geometry" />
        </mxCell>
        <mxCell id="VFR9KmglleWV5bc5xLFj-51" style="edgeStyle=orthogonalEdgeStyle;rounded=0;orthogonalLoop=1;jettySize=auto;html=1;exitX=0.5;exitY=1;exitDx=0;exitDy=0;entryX=0.664;entryY=0.012;entryDx=0;entryDy=0;entryPerimeter=0;" parent="1" source="VFR9KmglleWV5bc5xLFj-6" target="VFR9KmglleWV5bc5xLFj-7" edge="1">
          <mxGeometry relative="1" as="geometry" />
        </mxCell>
        <mxCell id="VFR9KmglleWV5bc5xLFj-6" value="科学效应列表页" style="rounded=1;whiteSpace=wrap;html=1;" parent="1" vertex="1">
          <mxGeometry x="390" y="440" width="120" height="60" as="geometry" />
        </mxCell>
        <mxCell id="VFR9KmglleWV5bc5xLFj-9" value="科学效应详情页" style="text;html=1;align=center;verticalAlign=middle;resizable=0;points=[];autosize=1;strokeColor=none;fillColor=none;" parent="1" vertex="1">
          <mxGeometry x="270" y="525" width="110" height="30" as="geometry" />
        </mxCell>
        <mxCell id="VFR9KmglleWV5bc5xLFj-33" value="科学效应检索" style="text;html=1;align=center;verticalAlign=middle;resizable=0;points=[];autosize=1;strokeColor=none;fillColor=none;" parent="1" vertex="1">
          <mxGeometry x="270" y="270" width="100" height="30" as="geometry" />
        </mxCell>
      </root>
    </mxGraphModel>
  </diagram>
</mxfile>
